<?xml version="1.0" standalone="no"?><!DOCTYPE svg PUBLIC "-//W3C//DTD SVG 1.1//EN" "http://www.w3.org/Graphics/SVG/1.1/DTD/svg11.dtd"><svg t="1537516230014" class="icon" style="" viewBox="0 0 1024 1024" version="1.1" xmlns="http://www.w3.org/2000/svg" p-id="3358" xmlns:xlink="http://www.w3.org/1999/xlink" width="16" height="16"><defs><style type="text/css"></style></defs><path d="M449.223 678.435c-0.001 0-0.003 0-0.005 0-8.838 0-16.843-3.569-22.651-9.344l-143.088-143.215c-5.553-5.747-8.975-13.585-8.975-22.221 0-17.671 14.326-31.997 31.997-31.997 8.636 0 16.474 3.422 22.23 8.983l143.081 143.143c5.807 5.793 9.399 13.803 9.399 22.653 0 17.669-14.321 31.993-31.989 31.997z" p-id="3359"></path><path d="M449.223 678.435c-17.668-0.004-31.989-14.329-31.989-31.997 0-8.818 3.567-16.802 9.335-22.59l268.771-268.77c5.746-5.545 13.577-8.961 22.207-8.961 17.671 0 31.997 14.326 31.997 31.997 0 8.63-3.415 16.461-8.97 22.217l-268.763 268.762c-5.801 5.767-13.792 9.335-22.618 9.343z" p-id="3360"></path><path d="M511.936 1023.999c-17.533-0.226-31.659-14.492-31.659-32.057 0-15.458 10.94-28.361 25.5-31.388 177.021-33.632 376.233-252.489 390.374-385.275l-0.192-360.153c-208.874-27.837-393.686-150.768-401.813-156.208-8.144-5.876-13.383-15.339-13.383-26.025 0-17.671 14.326-31.997 31.997-31.997 6.314 0 12.201 1.829 17.159 4.986 1.854 1.267 197.033 130.789 400.852 148.707 16.416 1.494 29.178 15.191 29.18 31.869v392.214c-18.622 177.133-249.83 408.085-441.937 444.689-1.939 0.405-4.169 0.639-6.452 0.643z" p-id="3361"></path><path d="M512.064 1023.743c-2.323-0.035-4.565-0.298-6.729-0.768-191.457-36.348-422.665-267.492-441.158-441.297l-0.129-395.478c0-16.638 12.67-30.461 29.18-31.869 204.267-17.981 398.934-147.504 400.918-148.848 4.743-2.928 10.495-4.663 16.65-4.663 17.706 0 32.060 14.354 32.060 32.060 0 10.531-5.077 19.875-12.917 25.721-8.212 5.5-193.025 128.367-401.898 156.204v363.481c13.95 129.458 213.161 348.315 389.974 381.975 14.768 3.063 25.708 15.966 25.708 31.425 0 17.565-14.126 31.831-31.638 32.057z" p-id="3362"></path></svg>